<?xml version="1.0" standalone="no"?><!DOCTYPE svg PUBLIC "-//W3C//DTD SVG 1.1//EN" "http://www.w3.org/Graphics/SVG/1.1/DTD/svg11.dtd"><svg t="1692104222156" class="icon" viewBox="0 0 1024 1024" version="1.1" xmlns="http://www.w3.org/2000/svg" p-id="6701" width="16" height="16" xmlns:xlink="http://www.w3.org/1999/xlink"><path d="M426.688 170.688h42.688v42.688h-42.688z" fill="#F7E4BA" p-id="6702"></path><path d="M469.312 170.688H512v42.688h-42.688zM341.312 213.312H384V256h-42.688zM384 213.312h42.688V256H384zM256 256h42.688v42.688H256zM298.688 256h42.688v42.688h-42.688zM256 298.688h42.688v42.688H256zM469.312 298.688H512v42.688h-42.688zM512 170.688h42.688v42.688H512zM512 298.688h42.688v42.688H512zM554.688 170.688h42.688v42.688h-42.688zM682.688 384h42.688v42.688h-42.688z" fill="#F7E4BA" p-id="6703"></path><path d="M725.312 384H768v42.688h-42.688zM768 426.688h42.688v42.688H768zM170.688 384h42.688v42.688h-42.688zM298.688 384h42.688v42.688h-42.688z" fill="#F7E4BA" p-id="6704"></path><path d="M341.312 384H384v42.688h-42.688zM128 426.688h42.688v42.688H128zM256 426.688h42.688v42.688H256zM469.312 426.688H512v42.688h-42.688zM512 426.688h42.688v42.688H512zM554.688 426.688h42.688v42.688h-42.688z" fill="#F7E4BA" p-id="6705"></path><path d="M597.312 469.312H640V512h-42.688zM170.688 341.312h42.688V384h-42.688z" fill="#F7E4BA" p-id="6706"></path><path d="M213.312 341.312H256V384h-42.688zM426.688 341.312h42.688V384h-42.688zM554.688 341.312h42.688V384h-42.688zM128 469.312h42.688V512H128z" fill="#F7E4BA" p-id="6707"></path><path d="M426.688 213.312h42.688V256h-42.688z" fill="#FCFAD8" p-id="6708"></path><path d="M469.312 213.312H512V256h-42.688zM341.312 256H384v42.688h-42.688zM384 256h42.688v42.688H384zM426.688 256h42.688v42.688h-42.688zM298.688 298.688h42.688v42.688h-42.688z" fill="#FCFAD8" p-id="6709"></path><path d="M341.312 298.688H384v42.688h-42.688zM384 298.688h42.688v42.688H384zM512 213.312h42.688V256H512zM554.688 213.312h42.688V256h-42.688zM554.688 256h42.688v42.688h-42.688z" fill="#FCFAD8" p-id="6710"></path><path d="M597.312 213.312H640V256h-42.688zM597.312 256H640v42.688h-42.688zM597.312 298.688H640v42.688h-42.688zM640 213.312h42.688V256H640zM640 256h42.688v42.688H640zM682.688 298.688h42.688v42.688h-42.688zM725.312 256H768v42.688h-42.688z" fill="#FCFAD8" p-id="6711"></path><path d="M725.312 298.688H768v42.688h-42.688zM682.688 426.688h42.688v42.688h-42.688z" fill="#FCFAD8" p-id="6712"></path><path d="M682.688 469.312h42.688V512h-42.688z" fill="#FCFAD8" p-id="6713"></path><path d="M725.312 426.688H768v42.688h-42.688z" fill="#FCFAD8" p-id="6714"></path><path d="M725.312 469.312H768V512h-42.688zM768 469.312h42.688V512H768zM810.688 384h42.688v42.688h-42.688zM810.688 426.688h42.688v42.688h-42.688z" fill="#FCFAD8" p-id="6715"></path><path d="M810.688 469.312h42.688V512h-42.688z" fill="#FCFAD8" p-id="6716"></path><path d="M853.312 426.688H896v42.688h-42.688z" fill="#FCFAD8" p-id="6717"></path><path d="M853.312 469.312H896V512h-42.688zM213.312 384H256v42.688h-42.688zM384 384h42.688v42.688H384zM426.688 384h42.688v42.688h-42.688zM170.688 426.688h42.688v42.688h-42.688z" fill="#FCFAD8" p-id="6718"></path><path d="M213.312 426.688H256v42.688h-42.688zM298.688 426.688h42.688v42.688h-42.688z" fill="#FCFAD8" p-id="6719"></path><path d="M341.312 426.688H384v42.688h-42.688zM384 426.688h42.688v42.688H384zM426.688 426.688h42.688v42.688h-42.688zM213.312 469.312H256V512h-42.688z" fill="#FCFAD8" p-id="6720"></path><path d="M298.688 469.312h42.688V512h-42.688zM384 469.312h42.688V512H384zM426.688 469.312h42.688V512h-42.688zM512 469.312h42.688V512H512zM597.312 384H640v42.688h-42.688zM256 341.312h42.688V384H256zM384 341.312h42.688V384H384zM469.312 341.312H512V384h-42.688zM512 341.312h42.688V384H512zM597.312 341.312H640V384h-42.688zM640 298.688h42.688v42.688H640z" fill="#FCFAD8" p-id="6721"></path><path d="M640 341.312h42.688V384H640zM640 384h42.688v42.688H640zM640 426.688h42.688v42.688H640z" fill="#FCFAD8" p-id="6722"></path><path d="M640 469.312h42.688V512H640zM682.688 256h42.688v42.688h-42.688zM768 341.312h42.688V384H768zM810.688 341.312h42.688V384h-42.688zM170.688 469.312h42.688V512h-42.688zM256 469.312h42.688V512H256zM341.312 469.312H384V512h-42.688zM469.312 469.312H512V512h-42.688zM554.688 469.312h42.688V512h-42.688z" fill="#FCFAD8" p-id="6723"></path><path d="M426.688 938.688h42.688v42.688h-42.688z" fill="#DCDBDD" p-id="6724"></path><path d="M469.312 938.688H512v42.688h-42.688zM512 938.688h42.688v42.688H512zM554.688 938.688h42.688v42.688h-42.688zM128 554.688h42.688v42.688H128z" fill="#DCDBDD" p-id="6725"></path><path d="M128 597.312h42.688V640H128zM128 640h42.688v42.688H128zM128 682.688h42.688v42.688H128zM170.688 725.312h42.688V768h-42.688zM213.312 768H256v42.688h-42.688zM256 810.688h42.688v42.688H256zM298.688 810.688h42.688v42.688h-42.688z" fill="#DCDBDD" p-id="6726"></path><path d="M341.312 810.688H384v42.688h-42.688zM384 853.312h42.688V896H384zM512 853.312h42.688V896H512zM554.688 853.312h42.688V896h-42.688z" fill="#DCDBDD" p-id="6727"></path><path d="M597.312 853.312H640V896h-42.688zM426.688 853.312h42.688V896h-42.688z" fill="#DCDBDD" p-id="6728"></path><path d="M469.312 853.312H512V896h-42.688z" fill="#DCDBDD" p-id="6729"></path><path d="M682.688 554.688h42.688v42.688h-42.688z" fill="#FFFFFF" p-id="6730"></path><path d="M682.688 597.312h42.688V640h-42.688z" fill="#FFFFFF" p-id="6731"></path><path d="M725.312 554.688H768v42.688h-42.688z" fill="#FFFFFF" p-id="6732"></path><path d="M725.312 597.312H768V640h-42.688zM682.688 640h42.688v42.688h-42.688z" fill="#FFFFFF" p-id="6733"></path><path d="M725.312 640H768v42.688h-42.688zM768 554.688h42.688v42.688H768z" fill="#FFFFFF" p-id="6734"></path><path d="M768 597.312h42.688V640H768zM768 640h42.688v42.688H768zM682.688 682.688h42.688v42.688h-42.688z" fill="#FFFFFF" p-id="6735"></path><path d="M725.312 682.688H768v42.688h-42.688zM768 682.688h42.688v42.688H768z" fill="#FFFFFF" p-id="6736"></path><path d="M682.688 725.312h42.688V768h-42.688z" fill="#FFFFFF" p-id="6737"></path><path d="M725.312 725.312H768V768h-42.688zM725.312 768H768v42.688h-42.688zM768 725.312h42.688V768H768zM768 768h42.688v42.688H768zM810.688 554.688h42.688v42.688h-42.688z" fill="#FFFFFF" p-id="6738"></path><path d="M810.688 597.312h42.688V640h-42.688zM810.688 640h42.688v42.688h-42.688zM810.688 682.688h42.688v42.688h-42.688z" fill="#FFFFFF" p-id="6739"></path><path d="M810.688 725.312h42.688V768h-42.688zM853.312 554.688H896v42.688h-42.688z" fill="#FFFFFF" p-id="6740"></path><path d="M853.312 597.312H896V640h-42.688zM853.312 640H896v42.688h-42.688zM853.312 682.688H896v42.688h-42.688zM213.312 554.688H256v42.688h-42.688zM298.688 554.688h42.688v42.688h-42.688zM384 554.688h42.688v42.688H384zM426.688 554.688h42.688v42.688h-42.688z" fill="#FFFFFF" p-id="6741"></path><path d="M213.312 597.312H256V640h-42.688zM298.688 597.312h42.688V640h-42.688zM426.688 597.312h42.688V640h-42.688zM512 554.688h42.688v42.688H512z" fill="#FFFFFF" p-id="6742"></path><path d="M512 597.312h42.688V640H512zM170.688 640h42.688v42.688h-42.688z" fill="#FFFFFF" p-id="6743"></path><path d="M213.312 640H256v42.688h-42.688zM256 640h42.688v42.688H256zM298.688 640h42.688v42.688h-42.688z" fill="#FFFFFF" p-id="6744"></path><path d="M341.312 640H384v42.688h-42.688zM384 640h42.688v42.688H384zM426.688 640h42.688v42.688h-42.688z" fill="#FFFFFF" p-id="6745"></path><path d="M469.312 640H512v42.688h-42.688zM512 640h42.688v42.688H512zM597.312 554.688H640v42.688h-42.688z" fill="#FFFFFF" p-id="6746"></path><path d="M597.312 597.312H640V640h-42.688zM554.688 640h42.688v42.688h-42.688z" fill="#FFFFFF" p-id="6747"></path><path d="M597.312 640H640v42.688h-42.688zM170.688 682.688h42.688v42.688h-42.688z" fill="#FFFFFF" p-id="6748"></path><path d="M213.312 682.688H256v42.688h-42.688zM256 682.688h42.688v42.688H256zM298.688 682.688h42.688v42.688h-42.688z" fill="#FFFFFF" p-id="6749"></path><path d="M341.312 682.688H384v42.688h-42.688zM384 682.688h42.688v42.688H384zM426.688 682.688h42.688v42.688h-42.688z" fill="#FFFFFF" p-id="6750"></path><path d="M469.312 682.688H512v42.688h-42.688zM512 682.688h42.688v42.688H512zM554.688 682.688h42.688v42.688h-42.688z" fill="#FFFFFF" p-id="6751"></path><path d="M597.312 682.688H640v42.688h-42.688zM341.312 725.312H384V768h-42.688zM384 725.312h42.688V768H384zM426.688 725.312h42.688V768h-42.688z" fill="#FFFFFF" p-id="6752"></path><path d="M469.312 725.312H512V768h-42.688zM384 768h42.688v42.688H384zM426.688 768h42.688v42.688h-42.688z" fill="#FFFFFF" p-id="6753"></path><path d="M469.312 768H512v42.688h-42.688zM512 725.312h42.688V768H512zM512 768h42.688v42.688H512zM554.688 725.312h42.688V768h-42.688zM426.688 810.688h42.688v42.688h-42.688z" fill="#FFFFFF" p-id="6754"></path><path d="M469.312 810.688H512v42.688h-42.688zM256 768h42.688v42.688H256zM298.688 768h42.688v42.688h-42.688zM597.312 768H640v42.688h-42.688zM554.688 810.688h42.688v42.688h-42.688z" fill="#FFFFFF" p-id="6755"></path><path d="M597.312 810.688H640v42.688h-42.688zM682.688 810.688h42.688v42.688h-42.688zM512 810.688h42.688v42.688H512zM554.688 768h42.688v42.688h-42.688zM597.312 725.312H640V768h-42.688zM682.688 768h42.688v42.688h-42.688z" fill="#FFFFFF" p-id="6756"></path><path d="M725.312 810.688H768v42.688h-42.688zM640 554.688h42.688v42.688H640z" fill="#FFFFFF" p-id="6757"></path><path d="M640 597.312h42.688V640H640zM640 640h42.688v42.688H640zM640 682.688h42.688v42.688H640z" fill="#FFFFFF" p-id="6758"></path><path d="M640 725.312h42.688V768H640zM640 768h42.688v42.688H640zM640 810.688h42.688v42.688H640zM170.688 554.688h42.688v42.688h-42.688zM256 554.688h42.688v42.688H256zM341.312 554.688H384v42.688h-42.688zM469.312 554.688H512v42.688h-42.688z" fill="#FFFFFF" p-id="6759"></path><path d="M170.688 597.312h42.688V640h-42.688zM256 597.312h42.688V640H256zM341.312 597.312H384V640h-42.688zM384 597.312h42.688V640H384zM469.312 597.312H512V640h-42.688zM554.688 554.688h42.688v42.688h-42.688z" fill="#FFFFFF" p-id="6760"></path><path d="M554.688 597.312h42.688V640h-42.688zM213.312 725.312H256V768h-42.688zM256 725.312h42.688V768H256zM298.688 725.312h42.688V768h-42.688zM341.312 768H384v42.688h-42.688zM384 810.688h42.688v42.688H384z" fill="#FFFFFF" p-id="6761"></path><path d="M341.312 170.688H384v42.688h-42.688zM384 170.688h42.688v42.688H384zM256 213.312h42.688V256H256z" p-id="6762"></path><path d="M298.688 213.312h42.688V256h-42.688zM213.312 256H256v42.688h-42.688zM469.312 256H512v42.688h-42.688zM170.688 298.688h42.688v42.688h-42.688z" p-id="6763"></path><path d="M213.312 298.688H256v42.688h-42.688zM426.688 298.688h42.688v42.688h-42.688zM512 256h42.688v42.688H512zM554.688 298.688h42.688v42.688h-42.688zM597.312 170.688H640v42.624h-42.688zM682.688 213.312h42.624V256h-42.624zM640 170.688h42.688v42.624H640zM725.312 170.688H768v42.624h-42.688zM768 85.312h42.688V128H768zM768 256h42.688v42.688H768zM768 298.688h42.688v42.688H768zM810.688 170.688h42.688v42.688h-42.688z" p-id="6764"></path><path d="M810.688 213.312h42.688V256h-42.688zM810.688 298.688h42.688v42.688h-42.688zM682.688 512h42.688v42.688h-42.688z" p-id="6765"></path><path d="M725.312 512H768v42.688h-42.688zM768 384h42.688v42.688H768zM768 512h42.688v42.688H768zM768 810.688h42.688v42.688H768zM810.688 512h42.688v42.688h-42.688zM810.688 768h42.688v42.688h-42.688zM853.312 384H896v42.688h-42.688zM896 426.688h42.688v42.688H896z" p-id="6766"></path><path d="M896 469.312h42.688V512H896zM853.312 512H896v42.688h-42.688zM896 512h42.688v42.688H896zM896 554.688h42.688v42.688H896z" p-id="6767"></path><path d="M896 597.312h42.688V640H896zM896 640h42.688v42.688H896zM896 682.688h42.688v42.688H896zM853.312 725.312H896V768h-42.688zM128 384h42.688v42.688H128zM256 384h42.688v42.688H256zM469.312 384H512v42.688h-42.688zM85.312 426.688H128v42.688h-42.688zM512 384h42.688v42.688H512zM213.312 512H256v42.688h-42.688zM298.688 512h42.688v42.688h-42.688zM384 512h42.688v42.688H384zM426.688 512h42.688v42.688h-42.688zM554.688 384h42.688v42.688h-42.688zM597.312 426.688H640v42.688h-42.688zM554.688 512h42.688v42.688h-42.688z" p-id="6768"></path><path d="M597.312 512H640v42.688h-42.688zM85.312 640H128v42.688h-42.688zM85.312 682.688H128v42.688h-42.688zM128 725.312h42.688V768H128zM213.312 810.688H256v42.688h-42.688zM256 853.312h42.688V896H256zM298.688 853.312h42.688V896h-42.688z" p-id="6769"></path><path d="M341.312 853.312H384V896h-42.688zM384 896h42.688v42.688H384zM426.688 896h42.688v42.688h-42.688z" p-id="6770"></path><path d="M469.312 896H512v42.688h-42.688zM384 938.688h42.688v42.688H384zM512 896h42.688v42.688H512zM554.688 896h42.688v42.688h-42.688z" p-id="6771"></path><path d="M597.312 896H640v42.688h-42.688zM597.312 938.688H640v42.688h-42.688zM682.688 853.312h42.688V896h-42.688z" p-id="6772"></path><path d="M725.312 853.312H768V896h-42.688zM426.688 128h42.688v42.688h-42.688z" p-id="6773"></path><path d="M469.312 128H512v42.688h-42.688zM128 341.312h42.688V384H128zM298.688 341.312h42.688V384h-42.688z" p-id="6774"></path><path d="M341.312 341.312H384V384h-42.688zM512 128h42.688v42.688H512zM554.688 128h42.688v42.688h-42.688zM640 512h42.688v42.688H640zM682.688 341.312h42.688V384h-42.688zM725.312 213.312H768V256h-42.688z" p-id="6775"></path><path d="M725.312 341.312H768V384h-42.688zM810.688 0h42.688v42.688h-42.688zM896 42.688h42.688v42.688H896zM853.312 85.312H896V128h-42.688zM853.312 128H896v42.688h-42.688zM768 128h42.688v42.688H768z" p-id="6776"></path><path d="M810.688 42.688h42.688v42.688h-42.688zM853.312 341.312H896V384h-42.688zM640 853.312h42.688V896H640zM384 981.312h42.688V1024H384zM426.688 981.312h42.688V1024h-42.688z" p-id="6777"></path><path d="M469.312 981.312H512V1024h-42.688zM512 981.312h42.688V1024H512zM554.688 981.312h42.688V1024h-42.688z" p-id="6778"></path><path d="M597.312 981.312H640V1024h-42.688zM85.312 469.312H128V512h-42.688zM85.312 512H128v42.688h-42.688zM128 512h42.688v42.688H128zM170.688 512h42.688v42.688h-42.688zM256 512h42.688v42.688H256zM341.312 512H384v42.688h-42.688zM469.312 512H512v42.688h-42.688zM512 512h42.688v42.688H512zM85.312 554.688H128v42.688h-42.688z" p-id="6779"></path><path d="M85.312 597.312H128V640h-42.688zM170.688 768h42.688v42.688h-42.688z" p-id="6780"></path></svg>